inDegrees=yes
name=ik_S44_A02_T01
DataType=double
version=3
OpenSimVersion=4.3-2021-08-27-4bc7ad9
endheader
time	pelvis_tilt	pelvis_list	pelvis_rotation	pelvis_tx	pelvis_ty	pelvis_tz	hip_flexion_r	hip_adduction_r	hip_rotation_r	knee_angle_r	knee_angle_r_beta	ankle_angle_r	subtalar_angle_r	mtp_angle_r	hip_flexion_l	hip_adduction_l	hip_rotation_l	knee_angle_l	knee_angle_l_beta	ankle_angle_l	subtalar_angle_l	mtp_angle_l	lumbar_extension	lumbar_bending	lumbar_rotation	arm_flex_r	arm_add_r	arm_rot_r	elbow_flex_r	pro_sup_r	wrist_flex_r	wrist_dev_r	arm_flex_l	arm_add_l	arm_rot_l	elbow_flex_l	pro_sup_l	wrist_flex_l	wrist_dev_l
30.65999999999944	0.3206369340683165	-1.339239558097221	70.49818952246633	0	0.9399999999999999	0	6.348797807828015	0.7646258961647886	3.876953323417069	9.050032233919485	0.1579528598935127	0	0	0	24.23834242333527	-1.635001912911224	-0.3625394040905594	28.72411227809953	0.5013303339653659	0	0	0	0	0	0	36.82384390754281	-36.82384390754279	4.750829596163578	81.61794082158821	85.24917066743015	0	0	36.82384390754281	-36.82384390754279	4.750829596163578	81.61794082158821	85.24917066738313	0	0
30.67999999999943	0.2598841197796103	-1.396725066093664	65.28966227006929	0	0.9399999999999999	0	6.579279361725326	0.9444843121856471	7.764848190983962	9.032369456578691	0.1576445862738692	0	0	0	24.60490049456931	-2.525417509262732	0.2418201738138958	27.35391533735048	0.4774158859485413	0	0	0	0	0	0	36.8504964489963	-36.85049644899629	4.752242189539443	81.63712765951968	85.24775807411989	0	0	36.8504964489963	-36.85049644899629	4.752242189539443	81.63712765951968	85.24775807407308	0	0
30.69999999999943	0.2920269586029119	-1.317608538414165	62.27114456735229	0	0.9399999999999999	0	7.287200590024033	0.321565332078493	7.566675304202834	9.828536954450131	0.1715403305090907	0	0	0	24.65112954734596	-2.466668653743296	2.069937693121059	26.37250938493005	0.460287120780134	0	0	0	0	0	0	36.86943976244702	-36.86943976244701	4.753245616523468	81.65075685991937	85.24675464718248	0	0	36.86943976244702	-36.86943976244701	4.753245616523468	81.65075685991937	85.24675464713583	0	0
30.71999999999943	0.2784147058941244	-1.363009139599026	59.0908967856499	0	0.9399999999999999	0	7.682618394460384	0.09545053939239384	8.686746778993642	10.22120930324444	0.178393755877091	0	0	0	24.37796966634834	-2.798805087701282	3.364467254124175	25.66809291240935	0.4479927340293637	0	0	0	0	0	0	36.88834837795059	-36.88834837795057	4.754227903521134	81.66409785049701	85.2457723602303	0	0	36.88834837795059	-36.88834837795057	4.754227903521134	81.66409785049701	85.24577236018381	0	0
30.73999999999943	0.2683836004977789	-1.384191319118868	55.88295002411157	0	0.9399999999999999	0	7.653077696033705	0.4340218372060117	11.63528254043541	9.97036608995386	0.174015715898888	0	0	0	23.04277925809488	-2.308451027508979	6.792631753246224	23.9649343395059	0.4182670092486305	0	0	0	0	0	0	36.90986658452265	-36.90986658452263	4.755367664414899	81.67957876747869	85.24463259938952	0	0	36.90986658452265	-36.90986658452263	4.755367664414899	81.67957876747869	85.24463259934328	0	0
30.75999999999943	0.2587933961719683	-1.411321150384388	54.33021038158402	0	0.9399999999999999	0	7.893055378458841	-0.127137243658667	10.70849633809786	10.04484201212546	0.1753155659542414	0	0	0	22.18955206558483	-1.912801800794542	7.579978892703885	23.64756789616998	0.4127279198770747	0	0	0	0	0	0	36.92500047460075	-36.92500047460074	4.756159344591964	81.69033130584228	85.24384091924917	0	0	36.92500047460075	-36.92500047460074	4.756159344591964	81.69033130584228	85.24384091920307	0	0
30.77999999999943	0.3076695284757762	-1.645047208085414	49.7458572500949	0	0.9399999999999999	0	8.250529006978685	-0.03955177974611509	13.1099197866773	10.53233565334871	0.183823935076123	0	0	0	21.01009519441037	-2.994341332235416	4.672800305525222	22.87504919649739	0.3992449250345627	0	0	0	0	0	0	36.95706408586543	-36.95706408586541	4.757835016092489	81.71309000294853	85.24216524782624	0	0	36.95706408586543	-36.95706408586541	4.757835016092489	81.71309000294853	85.24216524778045	0	0
30.79999999999943	0.2734535302269746	-1.819041211469533	48.30224065509638	0	0.9399999999999999	0	8.349215161873818	0.1033068263762531	14.20768189331156	10.1263124994389	0.1767374942010652	0	0	0	20.34869315965206	-3.063947760300938	4.686807761813278	21.96308375710878	0.3833281254528347	0	0	0	0	0	0	36.95888113402115	-36.95888113402115	4.757944879431245	81.71458294715652	85.24205538449274	0	0	36.95888113402115	-36.95888113402115	4.757944879431245	81.71458294715652	85.24205538444696	0	0
30.81999999999943	0.2689857599521774	-1.818488016528027	48.3105248311133	0	0.9399999999999999	0	8.56237532954068	-1.88482508115579	9.178379088407761	10.14902089112271	0.1771338304037803	0	0	0	19.80430541695524	-2.578941268098517	7.802543673123537	21.04216362368789	0.3672550369767347	0	0	0	0	0	0	36.97780734025847	-36.97780734025846	4.758966132164415	81.72845510971726	85.24103413180718	0	0	36.97780734025847	-36.97780734025846	4.758966132164415	81.72845510971726	85.24103413176151	0	0
30.83999999999943	0.3438951274594807	-2.073520117767967	45.31734425311826	0	0.9399999999999999	0	8.69654906306048	-1.439918464901799	11.63017701362934	9.602927088974859	0.1676026955315658	0	0	0	19.85579855833991	-3.507000265352559	5.330124773341677	20.67463405910052	0.360840435976264	0	0	0	0	0	0	36.98332796677479	-36.98332796677478	4.759298585033171	81.73297273833846	85.24070167895424	0	0	36.98332796677479	-36.98332796677478	4.759298585033171	81.73297273833846	85.24070167890856	0	0
30.85999999999943	-0.5739497651161464	-2.868611834449561	40.70832805197463	0	0.9399999999999999	0	10.18093197223381	-2.125935299187712	11.32835579301841	10.1259990864691	0.1767320241128238	0	0	0	20.20669676804991	-4.507661372414978	3.314249685484836	19.51604176634704	0.3406191857794857	0	0	0	0	0	0	37.00839168546691	-37.0083916854669	4.760609604161885	81.75077876879793	85.23939065988625	0	0	37.00839168546691	-37.0083916854669	4.760609604161885	81.75077876879793	85.23939065984081	0	0
30.87999999999943	-0.9473656106587175	-3.075480877494718	37.33482432421334	0	0.9399999999999999	0	10.80477350669939	-2.061386302281393	12.24213766549585	10.60159874048833	0.1850328039968052	0	0	0	19.76154917524073	-5.195283436415488	1.368582146555568	18.2641958733365	0.3187703532188831	0	0	0	0	0	0	37.03546920450216	-37.03546920450214	4.762021353554109	81.76995263007028	85.23797891055942	0	0	37.03546920450216	-37.03546920450214	4.762021353554109	81.76995263007028	85.23797891051423	0	0
30.89999999999943	-1.211171488932204	-3.153967853383436	35.03489147955898	0	0.9399999999999999	0	11.03260639005908	-2.374494770847523	10.95462876560542	10.39777311554847	0.1814753757416696	0	0	0	19.09660310449498	-5.638155431300026	-0.6117295805598397	17.40222852012606	0.3037261848606601	0	0	0	0	0	0	37.05865038857762	-37.0586503885776	4.763226906203177	81.78632580933056	85.2367733579661	0	0	37.05865038857762	-37.0586503885776	4.763226906203177	81.78632580933056	85.23677335792112	0	0
30.91999999999943	-1.699525580446506	-3.190916404295086	32.86876738500296	0	0.9399999999999999	0	10.97537819635714	-3.112616363715249	6.702191046096439	9.237991691023499	0.1612333712802387	0	0	0	18.69879162660179	-5.968890081252376	-3.104671610073038	16.71333510460154	0.2917027265644478	0	0	0	0	0	0	37.0923426792903	-37.09234267929029	4.764977290940037	81.8100984294687	85.23502297331025	0	0	37.0923426792903	-37.09234267929029	4.764977290940037	81.8100984294687	85.23502297326553	0	0
30.93999999999943	-2.08069312011893	-3.06465212385903	30.70987362864196	0	0.9399999999999999	0	11.00147345385327	-3.637903468387038	2.772958466954928	9.499144152472105	0.1657913415822045	0	0	0	18.47613429967173	-6.141726112157601	-4.966064412370685	16.63378398647415	0.2903142976294819	0	0	0	0	0	0	37.12640368195585	-37.12640368195584	4.76673423400584	81.83395945269486	85.23326603032562	0	0	37.12640368195585	-37.12640368195584	4.76673423400584	81.83395945269486	85.23326603028126	0	0
30.95999999999943	-2.059253917845036	-2.812092488904922	28.31689930574819	0	0.9399999999999999	0	10.45667753371152	-4.624226095766398	-6.501945892957598	10.0329174305383	0.1751074427436229	0	0	0	17.98280519772077	-6.321891842408775	-6.390211761311488	16.49157810565882	0.2878323367935556	0	0	0	0	0	0	37.17967388739987	-37.17967388739986	4.769518658769865	81.87177625884691	85.23048160569044	0	0	37.17967388739987	-37.17967388739986	4.769518658769865	81.87177625884691	85.23048160564655	0	0
30.97999999999943	-2.069490892016428	-2.749307036537619	27.07929524367835	0	0.9399999999999999	0	10.19482768055058	-4.977854392340707	-9.789097894885902	10.62363551097648	0.1854174181983299	0	0	0	17.26958783080173	-5.677852984345551	-5.029720767841897	15.6224780624111	0.2726636795096578	0	0	0	0	0	0	37.19440000783764	-37.19440000783764	4.77029174201355	81.88227609561845	85.22970852248255	0	0	37.19440000783764	-37.19440000783764	4.77029174201355	81.88227609561845	85.22970852243883	0	0
30.99999999999943	-2.266031395189386	-2.747464997963692	24.37624378288591	0	0.9399999999999999	0	10.18215745040417	-4.809675461118873	-8.582972290807957	12.50709599650372	0.2182900050019911	0	0	0	17.18725484542813	-6.357978830299	-7.654878319190272	15.87020633512032	0.2769873535187121	0	0	0	0	0	0	37.19856482350254	-37.19856482350252	4.770537470165752	81.88561478112575	85.22946279434193	0	0	37.19856482350254	-37.19856482350252	4.770537470165752	81.88561478112575	85.22946279429824	0	0
31.01999999999943	-2.371471867825546	-2.618054862089827	21.5839677194902	0	0.9399999999999999	0	9.720543231719684	-5.112213458473195	-10.3780616687342	17.9340183084101	0.3130076675947	0	0	0	15.76285562893833	-6.040669792889268	-8.746565648280775	14.64653286750744	0.2556302225395713	0	0	0	0	0	0	37.22508977483837	-37.22508977483836	4.771900613689036	81.9041272545243	85.22809965088155	0	0	37.22508977483837	-37.22508977483836	4.771900613689036	81.9041272545243	85.22809965083812	0	0
31.03999999999943	-2.419644289014392	-2.213559348899087	16.97240994055865	0	0.9399999999999999	0	9.163879757844587	-5.294397622416644	-10.3023473254471	19.73812117422001	0.3444952026477485	0	0	0	15.20646728579266	-6.800507003613074	-13.11993797832237	14.88284441349419	0.2597546370775181	0	0	0	0	0	0	37.25825647808912	-37.25825647808912	4.773602687049459	81.92724246588548	85.22639757759964	0	0	37.25825647808912	-37.25825647808912	4.773602687049459	81.92724246588548	85.22639757755654	0	0
31.05999999999943	-2.375718109282069	-2.05333980569168	15.40746913797595	0	0.9399999999999999	0	8.229665669840516	-5.720922031662442	-13.29207116411205	21.25288782203994	0.3709328680516037	0	0	0	14.34001117862741	-6.59997941042696	-13.87304258333126	14.26886771312411	0.2490387221255294	0	0	0	0	0	0	37.27748004161553	-37.27748004161551	4.774593033625008	81.94069213709481	85.22540723106977	0	0	37.27748004161553	-37.27748004161551	4.774593033625008	81.94069213709481	85.22540723102689	0	0
31.07999999999943	-2.060746608630352	-1.716457354819601	12.25077802402037	0	0.9399999999999999	0	7.438303811873118	-5.564056243414408	-13.36458731077586	20.90672365262586	0.3648911635428964	0	0	0	12.7027138084359	-6.305717609014161	-14.10553194506537	12.96837362254481	0.2263408183421913	0	0	0	0	0	0	37.29396115547748	-37.29396115547746	4.775421374959506	81.95194070615825	85.22457888977337	0	0	37.29396115547748	-37.29396115547746	4.775421374959506	81.95194070615825	85.22457888973054	0	0
